<?xml version="1.0" encoding="UTF-8"?>
<svg width="512" height="512" viewBox="0 0 512 512" fill="none" xmlns="http://www.w3.org/2000/svg">
  <!-- Background Circle -->
  <circle cx="256" cy="256" r="240" fill="#4F46E5" />
  
  <!-- Books Stack -->
  <g transform="translate(128, 96)">
    <!-- Book 1 -->
    <path d="M40 320L120 320L120 160L40 160L40 320Z" fill="#FFFFFF" />
    <path d="M40 160L120 160L120 320L40 320L40 160Z" fill="#E5E7EB" />
    
    <!-- Book 2 -->
    <path d="M80 280L160 280L160 120L80 120L80 280Z" fill="#FFFFFF" />
    <path d="M80 120L160 120L160 280L80 280L80 120Z" fill="#E5E7EB" />
    
    <!-- Book 3 -->
    <path d="M120 240L200 240L200 80L120 80L120 240Z" fill="#FFFFFF" />
    <path d="M120 80L200 80L200 240L120 240L120 80Z" fill="#E5E7EB" />
  </g>
  
  <!-- Library Icon -->
  <g transform="translate(256, 256)">
    <!-- Building Shape -->
    <path d="M-80 -120L80 -120L80 120L-80 120L-80 -120Z" fill="#FFFFFF" opacity="0.9" />
    
    <!-- Columns -->
    <rect x="-60" y="-100" width="20" height="80" fill="#4F46E5" />
    <rect x="40" y="-100" width="20" height="80" fill="#4F46E5" />
    
    <!-- Roof -->
    <path d="M-100 -120L0 -160L100 -120L100 -100L-100 -100L-100 -120Z" fill="#4F46E5" />
    
    <!-- Door -->
    <rect x="-20" y="-20" width="40" height="60" fill="#4F46E5" />
    
    <!-- Windows -->
    <rect x="-40" y="-80" width="20" height="20" fill="#4F46E5" />
    <rect x="20" y="-80" width="20" height="20" fill="#4F46E5" />
  </g>
  
  <!-- Decorative Elements -->
  <circle cx="256" cy="256" r="220" stroke="#FFFFFF" stroke-width="8" stroke-opacity="0.2" />
  <circle cx="256" cy="256" r="200" stroke="#FFFFFF" stroke-width="4" stroke-opacity="0.1" />
</svg> 